<svg width="22" height="26" viewBox="0 0 22 26" fill="none" xmlns="http://www.w3.org/2000/svg">
    <g clip-path="url(#clip0_198_3060)">
        <path
            d="M18.2957 13.7116C18.2832 11.6624 19.243 10.118 21.1811 8.97924C20.0971 7.47689 18.4572 6.6506 16.2954 6.49135C14.2486 6.33511 12.0092 7.64515 11.1893 7.64515C10.3227 7.64515 8.34111 6.54544 6.78193 6.54544C3.56417 6.59351 0.144531 9.02731 0.144531 13.979C0.144531 15.4423 0.42096 16.9537 0.973817 18.5101C1.71303 20.5593 4.37793 25.5802 7.15774 25.499C8.61133 25.466 9.63939 24.5015 11.5309 24.5015C13.3665 24.5015 14.3169 25.499 15.9382 25.499C18.7429 25.46 21.1531 20.8958 21.8551 18.8406C18.0938 17.125 18.2957 13.8168 18.2957 13.7116ZM15.0313 4.54732C16.606 2.73849 16.4631 1.09192 16.4166 0.5C15.0251 0.578122 13.4162 1.41643 12.5 2.44704C11.4905 3.55277 10.8973 4.9199 11.0246 6.46131C12.5279 6.57248 13.9007 5.82431 15.0313 4.54732Z"
            fill="white" />
    </g>
    <defs>
        <clipPath id="clip0_198_3060">
            <rect width="21.7105" height="25" fill="white" transform="translate(0.144531 0.5)" />
        </clipPath>
    </defs>
</svg>