<svg
    className="h-6"
    width="24"
    height="26"
    viewBox="0 0 24 26"
    fill="none"
    xmlns="http://www.w3.org/2000/svg"
>
    <g clip-path="url(#clip0_198_3072)">
        <path
            d="M12.9604 12.4667L17.0753 8.35972L3.78417 0.904179C2.90329 0.42918 2.07807 0.362514 1.35444 0.881957L12.9604 12.4667ZM17.7767 17.275L22.0544 14.8736C22.8894 14.4069 23.3472 13.7458 23.3472 13.0125C23.3472 12.2806 22.8894 11.6181 22.0558 11.1514L18.183 8.98056L13.8231 13.3306L17.7767 17.275ZM0.63916 1.89168C0.550097 2.16529 0.5 2.47084 0.5 2.80557V23.2291C0.5 23.7583 0.616894 24.2139 0.828417 24.5764L12.0962 13.3292L0.63916 1.89168ZM12.9604 14.1903L1.75522 25.375C1.96953 25.4569 2.20053 25.5 2.44406 25.5C2.87824 25.5 3.33051 25.3722 3.79113 25.1166L16.6704 17.8986L12.9604 14.1903Z"
            fill="white"
        />
    </g>
    <defs>
        <clipPath id="clip0_198_3072">
            <rect
                width="23"
                height="25"
                fill="white"
                transform="translate(0.5 0.5)"
            />
        </clipPath>
    </defs>
</svg>