<svg xmlns="http://www.w3.org/2000/svg" viewBox="0 0 1414.09 497.25"><defs><style>.cls-1{fill:#588b8b;}.cls-2{fill:#f28f3b;}.cls-3{fill:#fff;}.cls-4{fill:#3e605f;}.cls-5{fill:#71adac;}.cls-6{fill:#da8135;}.cls-7{fill:#301d0c;}</style></defs><g id="Layer_2" data-name="Layer 2"><g id="Layer_1-2" data-name="Layer 1"><path class="cls-1" d="M40.69,218.24q0,19.39.1,34.25t1.58,29.2q3.38,32.88,14.76,48.7,14.55,20.44,43.42,17.72l-.21,42.37h-4q-61.11,0-81.24-55.88Q4.2,304,1.68,259.77.42,239.52,0,220.13L1.63,147.2l46-21.51Q40.68,198.85,40.69,218.24Z"/><path class="cls-1" d="M127.12,329.13q0-47.2,19.32-70Q156,248,165.75,244.81q20-6.52,36.09,6.33,15.49,12.23,15.92,35.83a78.23,78.23,0,0,1-2.56,21.51q-5.77,22.13-20.73,37.31l-17.53,16.86,2.09,4q32.19-19.61,61.71-18.55l5.27.21-.42,41.95Q216.07,389.43,207,392t-13.91,6.12l5.27,11q11.38,26.13,12.44,37.1a79.44,79.44,0,0,1-.42,20.13,34,34,0,0,1-8.23,17,38.2,38.2,0,0,1-16,11.18q-20.44,7.59-37.52-5.06-23.19-15-23.19-45.22T146,390.48l-2.76-7.38q-17.59,7.38-47.73,7.38H93V348.11q10.11-.21,18.55-.21a62.16,62.16,0,0,0,16.23-2.11Q127.12,339.25,127.12,329.13ZM170,459q12.81-4.22,5.72-21.08a155.34,155.34,0,0,0-7.3-14.86,83.39,83.39,0,0,1-5.23-10.44q-13.78,20.67-3.28,40.06a12.41,12.41,0,0,0,4.52,4.63A9.21,9.21,0,0,0,170,459ZM184,292.45a10.28,10.28,0,0,0-2.71-7.58q-10.84-5.49-14.81,12.64-2.1,9.71-2.92,30.15Q184,305.73,184,292.45Z"/><path class="cls-2" d="M457.45,213.4a84.53,84.53,0,0,1,50.7,16.2q22.46,16.2,30.57,41.77t-3.48,51.23a65.42,65.42,0,0,1-8.86,14.52,67.27,67.27,0,0,0,27.83,10.78h6.32l-.42,42.37h-2.53q-20.87,0-41.53-11.39a93.89,93.89,0,0,1-13.38-8.74q-5.39-4.32-7.49-6-37.1,23.61-99.71,27.4a222.77,222.77,0,0,1-23.61.42v23H335.39l.83-25.5q-28.65-4.86-47.84-18.13-24,18.76-46.8,19l.21-41.95q16.87.42,24.88-4.23,13.92-8.23,25.82-24.61t27.09-41.73l24.47,26.83q-14.25,27.26-25.84,39.09l21.92,5.85q7.22-40.81,34.47-82,22.14-32.82,51.65-46.7A68.72,68.72,0,0,1,457.45,213.4Zm-64.51,96.89q-6.53,12.25-8.43,18.59t-2.95,9.3q-4,11.34-4.64,15.2,33.94.63,62.61-8.65,28.88-9.27,46.17-22.33,23-17.29,16.86-36-3.17-13.69-20.13-23t-31.09-7.61q-22.14,4.65-42.8,30.85A181.62,181.62,0,0,0,392.94,310.29Z"/><path class="cls-2" d="M601,263.36q0,12.87,5.69,33.2T617,319.86l-42.38-2.53Q562,293.51,562,264.84t14.57-48.07q23.14-27,47.62-20,24.45,6.75,44.27,47.22a167.83,167.83,0,0,1,9.69,23.61q20.25,62.61,56.92,60.71l.21,46.38Q716.11,371.3,694,358q-31.63,22.14-75.8,27.2t-54,5.06h-11V347.9q93.58-1.27,115.94-18.13-6.75-7.38-14.55-23-7.59-15.6-12.22-25.09Q632,260.41,628.41,254.93q-7.8-12.65-14.75-14.33t-9.81,4.11Q601,250.5,601,263.36ZM575.37,153a24,24,0,0,1,10.75-16.3q8.75-5.7,16.34-4.23,12.64,2.82,18.34,11.67T625,161.2q-2.52,13.19-11.27,18.67t-16.55,4q-7.59-1.51-11.81-4.54a19.52,19.52,0,0,1-6.74-6.92A26.94,26.94,0,0,1,575.37,153Z"/><path class="cls-2" d="M741.41,437.91q42.15,1.21,67.45-19.21t29.52-51.83q4.22-31.2-12.65-60.08l35.84-37.31q19,44.47,17.7,90t-28,78.42q-26.78,31.71-80.53,38.58Z"/><path class="cls-2" d="M926.55,93.87l-10.76.43q-13.49,0-18.76-6.86T892,74.27q.42-12.85,12.95-25.09T930.68,37l19.39,19.18q-17.28,2.32-25.47,7.59c-5.46,3.51-8.4,6.4-8.81,8.64.41,2.67,2.76,3.94,7,3.8s7.79-.28,10.55-.43a31.46,31.46,0,0,1,7.59.85q7.59,2.1,5.69,12.44-3.37,17.49-22.63,27.61a75.59,75.59,0,0,1-28.67,8.22L880.8,104.63Q912.21,102.1,926.55,93.87ZM937.3,390.69q-50-97.4-40.53-250.44L940,119.59Q934.2,195.49,938.7,238t12.83,73.36a319.36,319.36,0,0,0,23.29,60.61Z"/><path class="cls-3" d="M1414,436.11q-4.15-76.29-8-152.54T1398.44,131a20.44,20.44,0,0,0-2.92-9.58c-7.31-12.1-14.69-24.17-21.9-36.32-2.2-3.75-5.16-5.44-9.47-5.22H1364a9.15,9.15,0,0,1-9.16-11.26c.78-3.4,1.57-6.76,2.35-10.11,1.82-7.74-.1-11-7.65-12.81-21.71-5.1-43.43-10.29-65.21-15.2-1-.23-13.53-3.66-15.58-4.22-.21-.06-.38-.1-.59-.14-2.33-.47-17.71-3.58-22.85-4.8-8.61-2-11.49-.22-13.5,8.43-2.14,9.13-4.28,18.29-6.45,27.42-.54,2.36-5.67,5.28-7.84,4.53-1.51-.54-1.23-2-1.35-3.12-2-16.24-3.91-32.48-5.73-48.72-.91-8.18-3.68-10.57-11.68-9.69-5,.55-20.49,1.36-26.72,2l-.62.09c-2.19.37-18.2,2.74-21.1,3.06-27.13,3.05-54.47,6.9-81.56,10.11-7.4.92-9.63,4.19-8.72,11.68,2,16.24,3.78,32.48,5.82,48.69.38,3.14-.19,4.59-3.68,4.15-4.53-.57-7.43,1.73-9.69,5.54-7.46,12.59-15.08,25.08-22.66,37.61a12.06,12.06,0,0,0-1.83,5.6q-2.88,60.38-5.85,120.69-4.82,94.27-9.88,188.6a18.28,18.28,0,0,0,.24,4.51,9,9,0,0,0,9,7.07h383.37a9,9,0,0,0,8.94-7.08A28.2,28.2,0,0,0,1414,436.11Z"/><path class="cls-2" d="M1213.2,439.8q-94.41,0-188.82.11c-4.59,0-5.62-1.2-5.38-5.51q3.93-69.45,7.51-138.91,2.7-51.14,5.25-102.29c1-18.56,2-37.11,2.87-55.67.12-2.77.82-4.23,3.89-3.82a19.69,19.69,0,0,0,2.43,0q172.24,0,344.48-.12c5.23,0,6.25,1.55,6.48,6.3,2,40.93,4.24,81.84,6.39,122.75q2.61,49.73,5.17,99.44c1.27,24.26,2.49,48.53,3.94,72.78.24,3.94-.73,5-4.89,5Q1307.86,439.69,1213.2,439.8Z"/><path class="cls-1" d="M1122.15,128.49H1080c-4.17,0-2.89-3.65-3.15-5.64-2-15.41-3.72-30.86-5.53-46.29s-3.42-30.9-5.5-46.3c-.7-5.18.8-6.69,5.88-7.25,32.3-3.62,64.56-7.61,96.83-11.47,9.93-1.19,19.87-2.36,29.79-3.58,2.52-.3,4.34-.36,4.71,3.19,1.68,16.36,3.38,32.73,5.67,49,.64,4.59-1.16,5.43-4.64,6.27q-39.82,9.6-79.61,19.38c-8,2-10.29,5.71-8.48,13.75,2.11,9.31,4.27,18.62,6.39,27.94C1122.38,127.65,1122.28,127.84,1122.15,128.49Z"/><path class="cls-4" d="M1235.2,53.8c1.47-6.88,2.74-16,4-22,.67-3.12,2.63-2.16,4.59-1.69q33.84,8.33,67.72,16.57c11.11,2.72,22.19,5.58,33.33,8.16,2.9.67,3.73,1.59,3,4.84q-7.47,32.37-14.5,64.86c-.65,3-1.85,3.9-4.68,3.87-15.36-.12-30.73-.18-46.1.05-3.56.05-4.45-1.5-5.16-4.68-4.88-21.8-7.64-39.89-12.62-61.66-2.51-10.93-8.27-13.67-18.69-11C1242.8,52,1239.5,52.75,1235.2,53.8Z"/><path class="cls-5" d="M1199.06,125.65c-21.61,0-43.22-.1-64.82.1-3.56,0-5-1.25-5.64-5.42-1.08-6.92-2.51-13.78-4.15-20.54-1-4,0-5.48,3.3-6.4,28.44-8.06,56.85-16.28,85.27-24.45,12.64-3.64,25.31-7.19,37.92-11,3.23-1,4.69-.62,5.52,3.81q5.55,29.35,11.77,58.53c1.06,4.95-.11,5.51-3.82,5.48C1242.63,125.56,1220.84,125.65,1199.06,125.65Z"/><path class="cls-6" d="M1390.66,128.47c-17.11,0-32.84,0-48.58,0-2.9,0-3.86-.76-3.06-4.08,2.53-10.52,4.77-21.12,7-31.71.7-3.23,2.19-5.11,5.6-4.53a2.3,2.3,0,0,0,.74,0c10.66-1.89,18.07,1.39,22.74,12.6C1379,110.1,1385,118.49,1390.66,128.47Z"/><path class="cls-6" d="M1035,128.41c8.51-14.14,16.1-26.72,23.64-39.33,1.19-2,2.44-3.66,5.1-3.23,2.43.4,2.84,2.3,3.06,4.24,1.23,10.84,2.36,21.69,3.66,32.52.49,4.08-.59,6-5.16,5.88C1055.73,128.23,1046.2,128.41,1035,128.41Z"/><path class="cls-7" d="M1148.82,198.07a14.46,14.46,0,0,1-2.33-1.54c.13.09.28.15.44.25A9.17,9.17,0,0,1,1148.82,198.07Z"/><path class="cls-3" d="M1288.74,181.51a17.83,17.83,0,0,1-3.5,10.64.17.17,0,0,1-.09.13.16.16,0,0,1-.09.12l-.07,0a24.4,24.4,0,0,1-6.61,5,6.17,6.17,0,0,0-1.38.94h0c-1.32,1-1.7,2.33-1.73,4.35-.16,11.23.63,22.5-.57,33.77-3.4,32-24.7,52.17-56.58,53.84-34.4,1.83-58.35-14.41-65.27-46.92-2.74-12.84-1.52-25.84-1.61-38.77,0-2.9-.44-4.91-2.36-6.61h0a9.17,9.17,0,0,0-1.89-1.29c-.16-.1-.31-.16-.44-.25a18,18,0,1,1,19.54,1.54.59.59,0,0,0-.22.12c-2.61,1.55-5,3.37-4.84,6.11.53,11.36-1.07,22.88,1.1,34.18,4.94,25.65,28.92,44.28,54.1,42.26,27.5-2.2,48.15-23.35,49.12-50.45.16-4.15,0-8.3,0-12.49h.06c0-4.94-.15-9.88.07-14.82.16-2.8-.79-4.22-3.31-5.6a14.43,14.43,0,0,1-1.6-1,18,18,0,1,1,28.23-14.86Z"/></g></g></svg>