<svg
                        width="26"
                        height="25"
                        className="absolute left-3 h-6 w-6 text-gray-400"
                        viewBox="0 0 24 24"
                        fill="none"
                        xmlns="http://www.w3.org/2000/svg"
                    >
                        <path
                            d="M18.5812 16.1834C20.0827 14.1975 20.7553 11.7353 20.4642 9.28938C20.1732 6.84349 18.9401 4.59429 17.0116 2.99178C15.083 1.38926 12.6014 0.551612 10.063 0.646411C7.52465 0.74121 5.11683 1.76147 3.32126 3.50306C1.52568 5.24466 0.474778 7.57916 0.378787 10.0395C0.282797 12.4999 1.1488 14.9046 2.80354 16.7727C4.45829 18.6407 6.77973 19.8343 9.30345 20.1147C11.8272 20.395 14.367 19.7414 16.4149 18.2846H16.4133C16.4588 18.3447 16.5095 18.4024 16.5653 18.4575L22.5355 24.244C22.8263 24.5261 23.2207 24.6846 23.6321 24.6847C24.0434 24.6849 24.438 24.5266 24.7289 24.2448C25.0199 23.963 25.1835 23.5806 25.1836 23.1819C25.1838 22.7832 25.0205 22.4008 24.7297 22.1188L18.7596 16.3322C18.7041 16.2778 18.6445 16.2291 18.5812 16.1834ZM18.9813 10.4059C18.9813 11.4915 18.7607 12.5664 18.3321 13.5693C17.9035 14.5723 17.2752 15.4836 16.4833 16.2512C15.6913 17.0188 14.7511 17.6277 13.7163 18.0432C12.6816 18.4586 11.5725 18.6724 10.4525 18.6724C9.33246 18.6724 8.22341 18.4586 7.18865 18.0432C6.15388 17.6277 5.21367 17.0188 4.4217 16.2512C3.62973 15.4836 3.0015 14.5723 2.57289 13.5693C2.14427 12.5664 1.92367 11.4915 1.92367 10.4059C1.92367 8.21348 2.82224 6.11086 4.4217 4.56058C6.02116 3.01031 8.1905 2.13938 10.4525 2.13938C12.7145 2.13938 14.8838 3.01031 16.4833 4.56058C18.0827 6.11086 18.9813 8.21348 18.9813 10.4059Z"
                            fill="#F28F3B"
                        />
                    </svg>